<svg xmlns="http://www.w3.org/2000/svg" xmlns:xlink="http://www.w3.org/1999/xlink" version="1.1" width="256" height="256" viewBox="0 0 256 256" xml:space="preserve">

<defs>
</defs>
<g style="stroke: none; stroke-width: 0; stroke-dasharray: none; stroke-linecap: butt; stroke-linejoin: miter; stroke-miterlimit: 10; fill: none; fill-rule: nonzero; opacity: 1;" transform="translate(1.4065934065934016 1.4065934065934016) scale(2.81 2.81)" >
	<path d="M 35.082 54.919 C 20.43 40.266 18.585 17.659 29.544 1.001 c -5.528 2.229 -10.709 5.582 -15.19 10.063 c -17.834 17.834 -17.834 46.749 0 64.583 s 46.749 17.834 64.583 0 c 4.481 -4.481 7.834 -9.662 10.063 -15.19 C 72.342 71.416 49.734 69.571 35.082 54.919 z" style="stroke: none; stroke-width: 1; stroke-dasharray: none; stroke-linecap: butt; stroke-linejoin: miter; stroke-miterlimit: 10; fill: rgb(0,0,0); fill-rule: nonzero; opacity: 1;" transform=" matrix(1 0 0 1 0 0) " stroke-linecap="round" />
	<path d="M 35.082 54.919 C 20.43 40.266 18.585 17.659 29.544 1.001 c -5.528 2.229 -10.709 5.582 -15.19 10.063 c -17.834 17.834 -17.834 46.749 0 64.583 s 46.749 17.834 64.583 0 c 4.481 -4.481 7.834 -9.662 10.063 -15.19 C 72.342 71.416 49.734 69.571 35.082 54.919 z" style="stroke: none; stroke-width: 1; stroke-dasharray: none; stroke-linecap: butt; stroke-linejoin: miter; stroke-miterlimit: 10; fill: rgb(254,196,88); fill-rule: nonzero; opacity: 1;" transform=" matrix(1 0 0 1 0 0) " stroke-linecap="round" />
	<path d="M 64.102 53.954 c -1.733 -5.203 -5.848 -9.318 -11.051 -11.052 c -0.867 -0.289 -0.867 -1.495 0 -1.784 c 5.203 -1.734 9.317 -5.848 11.051 -11.051 c 0.289 -0.867 1.495 -0.867 1.784 0 c 1.734 5.203 5.848 9.318 11.052 11.051 c 0.867 0.289 0.867 1.495 0 1.784 c -5.203 1.734 -9.318 5.849 -11.052 11.052 C 65.597 54.822 64.39 54.821 64.102 53.954 z" style="stroke: none; stroke-width: 1; stroke-dasharray: none; stroke-linecap: butt; stroke-linejoin: miter; stroke-miterlimit: 10; fill: rgb(142,190,246); fill-rule: nonzero; opacity: 1;" transform=" matrix(1 0 0 1 0 0) " stroke-linecap="round" />
	<path d="M 74.162 19.682 c -0.966 -2.901 -3.26 -5.195 -6.161 -6.161 c -0.483 -0.161 -0.483 -0.834 0 -0.995 c 2.901 -0.966 5.194 -3.26 6.161 -6.161 c 0.161 -0.483 0.834 -0.483 0.995 0 c 0.967 2.901 3.26 5.195 6.161 6.161 c 0.483 0.161 0.483 0.834 0 0.995 c -2.9 0.967 -5.194 3.261 -6.161 6.161 C 74.995 20.165 74.323 20.165 74.162 19.682 z" style="stroke: none; stroke-width: 1; stroke-dasharray: none; stroke-linecap: butt; stroke-linejoin: miter; stroke-miterlimit: 10; fill: rgb(142,190,246); fill-rule: nonzero; opacity: 1;" transform=" matrix(1 0 0 1 0 0) " stroke-linecap="round" />
	<path d="M 43.23 28.365 c -1.179 -3.538 -3.976 -6.336 -7.514 -7.514 c -0.59 -0.196 -0.59 -1.017 0 -1.213 c 3.538 -1.179 6.335 -3.976 7.514 -7.514 c 0.196 -0.59 1.017 -0.59 1.213 0 c 1.179 3.538 3.976 6.335 7.514 7.514 c 0.59 0.196 0.59 1.017 0 1.213 c -3.537 1.179 -6.335 3.977 -7.514 7.514 C 44.247 28.955 43.427 28.955 43.23 28.365 z" style="stroke: none; stroke-width: 1; stroke-dasharray: none; stroke-linecap: butt; stroke-linejoin: miter; stroke-miterlimit: 10; fill: rgb(142,190,246); fill-rule: nonzero; opacity: 1;" transform=" matrix(1 0 0 1 0 0) " stroke-linecap="round" />
	<path d="M 46.645 90 c -11.95 0 -23.9 -4.549 -32.998 -13.646 c -18.195 -18.196 -18.195 -47.802 0 -65.997 c 4.475 -4.475 9.698 -7.935 15.523 -10.283 c 0.407 -0.166 0.871 -0.045 1.148 0.294 c 0.277 0.338 0.302 0.818 0.062 1.183 c -10.865 16.514 -8.59 38.661 5.41 52.66 l 0 0 c 14 13.999 36.147 16.274 52.661 5.41 c 0.368 -0.24 0.846 -0.215 1.184 0.062 c 0.338 0.276 0.457 0.742 0.294 1.148 c -2.349 5.825 -5.809 11.048 -10.284 15.523 C 70.546 85.451 58.596 90 46.645 90 z M 27.036 3.211 c -4.426 2.159 -8.443 5.03 -11.975 8.561 c -17.415 17.415 -17.415 45.752 0 63.169 c 17.416 17.415 45.752 17.413 63.169 0 c 3.531 -3.532 6.402 -7.55 8.561 -11.976 c -16.945 9.429 -38.514 6.563 -52.415 -7.339 l 0 0 l 0 0 C 20.474 41.725 17.606 20.157 27.036 3.211 z" style="stroke: none; stroke-width: 1; stroke-dasharray: none; stroke-linecap: butt; stroke-linejoin: miter; stroke-miterlimit: 10; fill: rgb(0,0,0); fill-rule: nonzero; opacity: 1;" transform=" matrix(1 0 0 1 0 0) " stroke-linecap="round" />
	<path d="M 46.645 90 c -11.95 0 -23.9 -4.549 -32.998 -13.646 c -18.195 -18.196 -18.195 -47.802 0 -65.997 c 4.475 -4.475 9.698 -7.935 15.523 -10.283 c 0.407 -0.166 0.871 -0.045 1.148 0.294 c 0.277 0.338 0.302 0.818 0.062 1.183 c -10.865 16.514 -8.59 38.661 5.41 52.66 l 0 0 c 14 13.999 36.147 16.274 52.661 5.41 c 0.368 -0.24 0.846 -0.215 1.184 0.062 c 0.338 0.276 0.457 0.742 0.294 1.148 c -2.349 5.825 -5.809 11.048 -10.284 15.523 C 70.546 85.451 58.596 90 46.645 90 z M 27.036 3.211 c -4.426 2.159 -8.443 5.03 -11.975 8.561 c -17.415 17.415 -17.415 45.752 0 63.169 c 17.416 17.415 45.752 17.413 63.169 0 c 3.531 -3.532 6.402 -7.55 8.561 -11.976 c -16.945 9.429 -38.514 6.563 -52.415 -7.339 l 0 0 l 0 0 C 20.474 41.725 17.606 20.157 27.036 3.211 z" style="stroke: none; stroke-width: 1; stroke-dasharray: none; stroke-linecap: butt; stroke-linejoin: miter; stroke-miterlimit: 10; fill: rgb(0,0,0); fill-rule: nonzero; opacity: 1;" transform=" matrix(1 0 0 1 0 0) " stroke-linecap="round" />
	<path d="M 64.993 55.605 c -0.848 0 -1.571 -0.524 -1.84 -1.334 h -0.001 c -1.629 -4.894 -5.524 -8.788 -10.418 -10.419 c -0.811 -0.27 -1.334 -0.993 -1.334 -1.841 c 0 -0.848 0.524 -1.571 1.334 -1.841 c 4.893 -1.63 8.787 -5.525 10.419 -10.418 c 0.27 -0.811 0.992 -1.335 1.84 -1.335 c 0.849 0 1.572 0.524 1.841 1.334 c 1.631 4.894 5.526 8.789 10.42 10.419 c 0.811 0.27 1.334 0.992 1.334 1.841 c 0 0.848 -0.524 1.571 -1.335 1.841 c -4.893 1.631 -8.787 5.526 -10.419 10.419 C 66.565 55.081 65.842 55.605 64.993 55.605 z M 53.534 42.01 c 5.357 1.845 9.619 6.108 11.459 11.46 c 1.845 -5.355 6.109 -9.618 11.46 -11.46 c -5.356 -1.845 -9.618 -6.108 -11.459 -11.459 C 63.149 35.907 58.885 40.17 53.534 42.01 z" style="stroke: none; stroke-width: 1; stroke-dasharray: none; stroke-linecap: butt; stroke-linejoin: miter; stroke-miterlimit: 10; fill: rgb(0,0,0); fill-rule: nonzero; opacity: 1;" transform=" matrix(1 0 0 1 0 0) " stroke-linecap="round" />
	<path d="M 74.659 21.044 c -0.001 0 -0.001 0 -0.002 0 c -0.656 0 -1.237 -0.421 -1.445 -1.047 c -0.865 -2.597 -2.932 -4.664 -5.529 -5.529 c -0.625 -0.208 -1.046 -0.789 -1.046 -1.446 s 0.421 -1.238 1.047 -1.446 c 2.596 -0.865 4.662 -2.932 5.527 -5.528 c 0.209 -0.626 0.79 -1.047 1.448 -1.047 c 0.656 0 1.238 0.421 1.446 1.046 c 0.865 2.597 2.932 4.663 5.53 5.529 c 0.625 0.209 1.046 0.79 1.046 1.447 c 0 0.656 -0.421 1.237 -1.046 1.446 c -2.596 0.865 -4.663 2.932 -5.53 5.529 C 75.897 20.624 75.316 21.044 74.659 21.044 z M 75.112 19.366 L 75.112 19.366 C 75.112 19.367 75.112 19.366 75.112 19.366 z M 69.45 13.023 c 2.286 1.068 4.142 2.923 5.209 5.209 c 1.068 -2.286 2.924 -4.142 5.209 -5.209 c -2.287 -1.067 -4.143 -2.924 -5.209 -5.21 C 73.592 10.1 71.737 11.956 69.45 13.023 z" style="stroke: none; stroke-width: 1; stroke-dasharray: none; stroke-linecap: butt; stroke-linejoin: miter; stroke-miterlimit: 10; fill: rgb(0,0,0); fill-rule: nonzero; opacity: 1;" transform=" matrix(1 0 0 1 0 0) " stroke-linecap="round" />
	<path d="M 43.837 29.808 c -0.706 0 -1.331 -0.453 -1.556 -1.126 c -1.076 -3.232 -3.649 -5.805 -6.881 -6.882 c -0.674 -0.224 -1.126 -0.849 -1.126 -1.556 s 0.453 -1.331 1.126 -1.556 c 3.232 -1.077 5.804 -3.649 6.881 -6.881 c 0.224 -0.674 0.849 -1.126 1.556 -1.126 c 0.706 0 1.331 0.453 1.556 1.126 c 1.076 3.232 3.649 5.805 6.882 6.881 c 0.673 0.224 1.126 0.849 1.126 1.556 s -0.453 1.331 -1.127 1.556 c -3.231 1.077 -5.803 3.65 -6.881 6.882 C 45.168 29.355 44.543 29.808 43.837 29.808 z M 36.942 20.244 c 3.098 1.304 5.592 3.797 6.895 6.895 c 1.304 -3.098 3.796 -5.591 6.895 -6.895 c -3.098 -1.303 -5.592 -3.796 -6.895 -6.895 C 42.533 16.448 40.04 18.941 36.942 20.244 z" style="stroke: none; stroke-width: 1; stroke-dasharray: none; stroke-linecap: butt; stroke-linejoin: miter; stroke-miterlimit: 10; fill: rgb(0,0,0); fill-rule: nonzero; opacity: 1;" transform=" matrix(1 0 0 1 0 0) " stroke-linecap="round" />
</g>
</svg>