<svg xmlns="http://www.w3.org/2000/svg" xmlns:xlink="http://www.w3.org/1999/xlink" version="1.1" width="256" height="256" viewBox="0 0 256 256" xml:space="preserve">

<defs>
</defs>
<g style="stroke: none; stroke-width: 0; stroke-dasharray: none; stroke-linecap: butt; stroke-linejoin: miter; stroke-miterlimit: 10; fill: none; fill-rule: nonzero; opacity: 1;" transform="translate(1.4065934065934016 1.4065934065934016) scale(2.81 2.81)" >
	<path d="M 50 81.659 H 28.796 c -3.191 0 -5.787 -2.596 -5.787 -5.787 s 2.596 -5.787 5.787 -5.787 h 46.815 c 0.985 0 1.787 -0.802 1.787 -1.787 c 0 -0.986 -0.802 -1.788 -1.787 -1.788 h -65.01 c -1.104 0 -2 -0.896 -2 -2 s 0.896 -2 2 -2 h 65.01 c 3.191 0 5.787 2.597 5.787 5.788 s -2.596 5.787 -5.787 5.787 H 28.796 c -0.985 0 -1.787 0.802 -1.787 1.787 s 0.802 1.787 1.787 1.787 H 50 c 1.104 0 2 0.896 2 2 S 51.104 81.659 50 81.659 z" style="stroke: none; stroke-width: 1; stroke-dasharray: none; stroke-linecap: butt; stroke-linejoin: miter; stroke-miterlimit: 10; fill: rgb(50,252,242); fill-rule: nonzero; opacity: 1;" transform=" matrix(1 0 0 1 0 0) " stroke-linecap="round" />
	<path d="M 45 18.872 c -0.552 0 -1 -0.448 -1 -1 V 5.766 c 0 -0.552 0.448 -1 1 -1 s 1 0.448 1 1 v 12.106 C 46 18.424 45.552 18.872 45 18.872 z" style="stroke: none; stroke-width: 1; stroke-dasharray: none; stroke-linecap: butt; stroke-linejoin: miter; stroke-miterlimit: 10; fill: rgb(0,0,0); fill-rule: nonzero; opacity: 1;" transform=" matrix(1 0 0 1 0 0) " stroke-linecap="round" />
	<path d="M 13.105 50.766 H 1 c -0.552 0 -1 -0.447 -1 -1 s 0.448 -1 1 -1 h 12.105 c 0.552 0 1 0.447 1 1 S 13.658 50.766 13.105 50.766 z" style="stroke: none; stroke-width: 1; stroke-dasharray: none; stroke-linecap: butt; stroke-linejoin: miter; stroke-miterlimit: 10; fill: rgb(0,0,0); fill-rule: nonzero; opacity: 1;" transform=" matrix(1 0 0 1 0 0) " stroke-linecap="round" />
	<path d="M 89 50.766 H 76.895 c -0.553 0 -1 -0.447 -1 -1 s 0.447 -1 1 -1 H 89 c 0.553 0 1 0.447 1 1 S 89.553 50.766 89 50.766 z" style="stroke: none; stroke-width: 1; stroke-dasharray: none; stroke-linecap: butt; stroke-linejoin: miter; stroke-miterlimit: 10; fill: rgb(0,0,0); fill-rule: nonzero; opacity: 1;" transform=" matrix(1 0 0 1 0 0) " stroke-linecap="round" />
	<path d="M 67.553 28.213 c -0.256 0 -0.512 -0.098 -0.707 -0.293 c -0.391 -0.391 -0.391 -1.023 0 -1.414 l 8.56 -8.56 c 0.391 -0.391 1.023 -0.391 1.414 0 s 0.391 1.023 0 1.414 l -8.56 8.56 C 68.064 28.115 67.809 28.213 67.553 28.213 z" style="stroke: none; stroke-width: 1; stroke-dasharray: none; stroke-linecap: butt; stroke-linejoin: miter; stroke-miterlimit: 10; fill: rgb(0,0,0); fill-rule: nonzero; opacity: 1;" transform=" matrix(1 0 0 1 0 0) " stroke-linecap="round" />
	<path d="M 22.447 28.213 c -0.256 0 -0.512 -0.098 -0.707 -0.293 l -8.56 -8.56 c -0.391 -0.391 -0.391 -1.023 0 -1.414 s 1.023 -0.391 1.414 0 l 8.56 8.56 c 0.391 0.391 0.391 1.023 0 1.414 C 22.959 28.115 22.703 28.213 22.447 28.213 z" style="stroke: none; stroke-width: 1; stroke-dasharray: none; stroke-linecap: butt; stroke-linejoin: miter; stroke-miterlimit: 10; fill: rgb(0,0,0); fill-rule: nonzero; opacity: 1;" transform=" matrix(1 0 0 1 0 0) " stroke-linecap="round" />
	<path d="M 64.903 61.51 c 2.036 -3.442 3.208 -7.455 3.208 -11.744 c 0 -12.764 -10.347 -23.111 -23.111 -23.111 S 21.889 37.002 21.889 49.766 c 0 4.289 1.172 8.302 3.208 11.744 H 64.903 z" style="stroke: none; stroke-width: 1; stroke-dasharray: none; stroke-linecap: butt; stroke-linejoin: miter; stroke-miterlimit: 10; fill: rgb(255,197,51); fill-rule: nonzero; opacity: 1;" transform=" matrix(1 0 0 1 0 0) " stroke-linecap="round" />
	<path d="M 64.903 62.51 H 25.097 c -0.354 0 -0.681 -0.187 -0.861 -0.491 c -2.19 -3.704 -3.347 -7.94 -3.347 -12.253 c 0 -13.295 10.816 -24.111 24.111 -24.111 s 24.111 10.816 24.111 24.111 c 0 4.313 -1.157 8.549 -3.348 12.253 C 65.584 62.323 65.257 62.51 64.903 62.51 z M 25.676 60.51 h 38.648 c 1.825 -3.277 2.787 -6.979 2.787 -10.744 c 0 -12.192 -9.919 -22.111 -22.111 -22.111 s -22.111 9.919 -22.111 22.111 C 22.889 53.53 23.851 57.232 25.676 60.51 z" style="stroke: none; stroke-width: 1; stroke-dasharray: none; stroke-linecap: butt; stroke-linejoin: miter; stroke-miterlimit: 10; fill: rgb(0,0,0); fill-rule: nonzero; opacity: 1;" transform=" matrix(1 0 0 1 0 0) " stroke-linecap="round" />
	<path d="M 50 77.659 H 28.796 c -2.64 0 -4.787 -2.147 -4.787 -4.787 s 2.147 -4.787 4.787 -4.787 h 46.815 c 1.537 0 2.787 -1.25 2.787 -2.787 s -1.25 -2.788 -2.787 -2.788 h -65.01 c -0.552 0 -1 -0.447 -1 -1 s 0.448 -1 1 -1 h 65.01 c 2.64 0 4.787 2.147 4.787 4.788 c 0 2.64 -2.147 4.787 -4.787 4.787 H 28.796 c -1.537 0 -2.787 1.25 -2.787 2.787 s 1.25 2.787 2.787 2.787 H 50 c 0.553 0 1 0.447 1 1 S 50.553 77.659 50 77.659 z" style="stroke: none; stroke-width: 1; stroke-dasharray: none; stroke-linecap: butt; stroke-linejoin: miter; stroke-miterlimit: 10; fill: rgb(0,0,0); fill-rule: nonzero; opacity: 1;" transform=" matrix(1 0 0 1 0 0) " stroke-linecap="round" />
	<path d="M 62.411 77.659 h -6.147 c -0.553 0 -1 -0.447 -1 -1 s 0.447 -1 1 -1 h 6.147 c 0.553 0 1 0.447 1 1 S 62.964 77.659 62.411 77.659 z" style="stroke: none; stroke-width: 1; stroke-dasharray: none; stroke-linecap: butt; stroke-linejoin: miter; stroke-miterlimit: 10; fill: rgb(0,0,0); fill-rule: nonzero; opacity: 1;" transform=" matrix(1 0 0 1 0 0) " stroke-linecap="round" />
	<path d="M 55.602 85.234 H 34.398 c -0.552 0 -1 -0.447 -1 -1 s 0.448 -1 1 -1 h 21.204 c 0.553 0 1 0.447 1 1 S 56.154 85.234 55.602 85.234 z" style="stroke: none; stroke-width: 1; stroke-dasharray: none; stroke-linecap: butt; stroke-linejoin: miter; stroke-miterlimit: 10; fill: rgb(0,0,0); fill-rule: nonzero; opacity: 1;" transform=" matrix(1 0 0 1 0 0) " stroke-linecap="round" />
</g>
</svg>